PathFileType	3	(X/Y/Z)	F:\ViconData\AntennenMessung\Messung1\Session1\ID16.trc
DataRate	CameraRate	NumFrames	NumMarkers	Units	OrigDataRate	OrigDataStartFrame	OrigNumFrames
120.0	120.0	4	70	mm	120.0	226	900	
Frame#	Time	Ashort			Along			Atop			A4			Bshort			Blong			Btop			B4			Cshort			Clong			Ctop			C4			Dshort			Dlong			Dtop			D4			Eshort			Elong			Etop			E4			Fshort			Flong			Ftop			F4			Gshort			Glong			Gtop			G4			Hshort			Hlong			Htop			H4			I1			I2			I3			I4			I5			WandAshort			WandAlong			WandAtop			WandA4			WandA15			WandBshort			WandB4			WandB5			WandBtop			WandBlong			WandCshort			WandClong			WandCtop			WandC4			WandC5			Acenter			Aantenna			Bcenter			Bantenna			Ccenter			Cantenna			Dcenter			Dantenna			Ecenter			Eantenna			Fcenter			Fantenna			Gcenter			Gantenna			Hcenter			Hantenna			Icenter			Iantenna			
		X1	Y1	Z1	X2	Y2	Z2	X3	Y3	Z3	X4	Y4	Z4	X5	Y5	Z5	X6	Y6	Z6	X7	Y7	Z7	X8	Y8	Z8	X9	Y9	Z9	X10	Y10	Z10	X11	Y11	Z11	X12	Y12	Z12	X13	Y13	Z13	X14	Y14	Z14	X15	Y15	Z15	X16	Y16	Z16	X17	Y17	Z17	X18	Y18	Z18	X19	Y19	Z19	X20	Y20	Z20	X21	Y21	Z21	X22	Y22	Z22	X23	Y23	Z23	X24	Y24	Z24	X25	Y25	Z25	X26	Y26	Z26	X27	Y27	Z27	X28	Y28	Z28	X29	Y29	Z29	X30	Y30	Z30	X31	Y31	Z31	X32	Y32	Z32	X33	Y33	Z33	X34	Y34	Z34	X35	Y35	Z35	X36	Y36	Z36	X37	Y37	Z37	X38	Y38	Z38	X39	Y39	Z39	X40	Y40	Z40	X41	Y41	Z41	X42	Y42	Z42	X43	Y43	Z43	X44	Y44	Z44	X45	Y45	Z45	X46	Y46	Z46	X47	Y47	Z47	X48	Y48	Z48	X49	Y49	Z49	X50	Y50	Z50	X51	Y51	Z51	X52	Y52	Z52	X53	Y53	Z53	X54	Y54	Z54	X55	Y55	Z55	X56	Y56	Z56	X57	Y57	Z57	X58	Y58	Z58	X59	Y59	Z59	X60	Y60	Z60	X61	Y61	Z61	X62	Y62	Z62	X63	Y63	Z63	X64	Y64	Z64	X65	Y65	Z65	X66	Y66	Z66	X67	Y67	Z67	X68	Y68	Z68	X69	Y69	Z69	X70	Y70	Z70	
226	1.875	-1038.196	214.54388	-1644.17	-1109.3544	204.13058	-1599.3197	-1063.7753	173.29135	-1625.7385	-1054.1619	262.23035	-1634.9253	-1352.8507	235.1525	1003.6789	-1281.3726	227.22305	1052.46	-1322.8315	193.80841	1020.9368	-1284.5109	287.95435	1052.7115	813.90045	187.52779	1209.4614	892.06232	178.46959	1179.3212	844.33868	145.57455	1198.2866	860.81757	292.78564	1168.4482	1115.7059	209.62282	-1401.5948	1056.217	194.0381	-1460.1809	1095.0455	162.49034	-1423.8256	1069.7609	238.77792	-1425.7778	-1204.5477	1685.9584	-1563.1862	-1129.1322	1688.2759	-1605.9982	-1173.1545	1724.4305	-1581.9264	-1134.0476	1581.019	-1603.8682	-1239.5967	1699.0922	1119.4595	-1309.2148	1698.5551	1071.8431	-1270.4254	1736.2825	1096.87	-1245.5878	1592.7742	1110.6743	988.83246	1664.2418	1162.2023	957.33112	1700.4667	1183.7583	922.25122	1662.3386	1215.0137	939.78625	1659.4373	1159.934	999.04694	1668.4625	-1579.3904	1058.882	1670.186	-1518.6244	1024.9561	1708.033	-1551.1033	1059.2408	1672.1537	-1585.4277	-147.08449	1161.3114	-186.65852	-232.24591	1160.709	-187.87048	-185.30042	1198.3634	-188.53355	-184.18878	1159.3085	-219.07198	-185.50801	1163.6837	-139.95236																																														-1068.6704	210.08427	-1624.9623	-1073.8126	248.73517	-1624.147	-1321.4692	231.67119	1025.0955	-1320.0754	270.41327	1029.3506	847.98389	183.57784	1196.3184	851.7027	222.34818	1194.3104	1088.7738	202.56723	-1428.1182	1082.7776	240.88434	-1432.2224	-1171.8892	1686.9619	-1581.7256	-1170.5729	1647.9846	-1581.517	-1270.9294	1698.8503	1098.0289	-1271.4543	1659.8726	1099.2358	952.80792	1705.668	1186.8533	972.65833	1733.8158	1168.5597	1026.4933	1669.2531	-1551.5168	1028.0381	1630.2858	-1551.9327	-185.05545	1161.0427	-187.1989	-184.79964	1122.0685	-185.8051
227	1.8833333	-1038.2018	214.55347	-1644.1757	-1109.3767	204.12097	-1599.3132	-1063.6816	172.99292	-1625.9447	-1054.1537	262.21365	-1634.9154	-1352.9309	234.98698	1003.6788	-1281.3267	227.2157	1052.4025	-1322.8065	193.81477	1020.9788	-1284.5837	287.95813	1052.7769	813.93713	187.72792	1209.574	892.04156	178.46245	1179.2285	844.34235	145.66072	1198.2612	860.90253	292.73849	1168.4706	1115.7482	209.90218	-1401.7509	1056.2157	194.03145	-1460.1825	1095.0676	162.48839	-1423.8967	1069.7562	238.74471	-1425.7618	-1204.5524	1685.9362	-1563.1705	-1129.1412	1688.3646	-1606.229	-1173.1533	1724.4324	-1581.931	-1134.046	1581.0052	-1603.8606	-1239.5786	1699.0814	1119.4622	-1309.3175	1698.7429	1071.9048	-1270.4176	1736.2827	1096.8616	-1245.6305	1592.8013	1110.6941	988.81854	1664.2162	1162.194	957.48901	1700.3792	1183.8408	922.63715	1662.1796	1215.0712	939.73926	1659.4215	1159.8995	999.02997	1668.4874	-1579.4156	1058.8533	1670.16	-1518.6279	1024.9501	1708.0322	-1551.0873	1059.236	1672.1641	-1585.4281	-147.08252	1161.3109	-186.65149	-232.25691	1160.7063	-187.84482	-185.36409	1198.4524	-188.53526	-184.19879	1159.2516	-218.86642	-185.5106	1163.7209	-139.93184																																														-1068.5537	210.1046	-1625.0443	-1073.6288	248.76161	-1624.1066	-1321.4928	231.57498	1025.071	-1320.1448	270.3248	1029.2704	848.09167	183.67616	1196.3041	851.91455	222.43703	1194.3086	1088.6857	202.68759	-1428.3129	1082.6062	240.98045	-1432.5198	-1171.8856	1686.9882	-1581.8226	-1170.566	1648.0106	-1581.7098	-1271.0247	1698.9287	1098.0178	-1271.6582	1659.9525	1099.2244	953.09808	1705.4473	1186.8746	972.91138	1733.5909	1168.5343	1026.4785	1669.2548	-1551.5245	1028.0146	1630.2875	-1551.9639	-185.1174	1161.0409	-187.18436	-184.8604	1122.0671	-185.77705
228	1.8916667	-1038.222	214.60104	-1644.2017	-1109.3586	204.18964	-1599.3433	-1063.5983	172.97911	-1625.9717	-1054.1667	262.22687	-1634.9271	-1352.8403	234.92691	1003.6353	-1281.4108	227.24185	1052.4285	-1322.8698	193.7731	1020.9353	-1284.5535	287.98798	1052.7281	813.93842	187.53229	1209.4366	892.61713	179.30258	1178.6515	844.34021	145.60661	1198.2671	860.9007	292.8165	1168.5089	1115.7114	209.6246	-1401.6047	1056.1705	194.07007	-1460.2179	1095.0625	162.52585	-1423.8381	1069.7916	238.798	-1425.8054	-1204.5482	1685.9534	-1563.1908	-1129.1284	1688.3489	-1606.209	-1173.1515	1724.4241	-1581.9298	-1134.0552	1580.9901	-1603.8383	-1239.58	1699.061	1119.448	-1309.3145	1698.7177	1071.8918	-1270.4056	1736.252	1096.8582	-1245.6143	1592.8007	1110.6815	988.82013	1664.2344	1162.2023	957.45892	1700.3964	1183.8395	922.10968	1662.1891	1214.917	939.72797	1659.3914	1159.9335	999.04456	1668.4821	-1579.4178	1058.87	1670.1847	-1518.6238	1024.96	1708.0411	-1551.1025	1059.2411	1672.1621	-1585.4313	-147.06808	1161.3116	-186.65128	-232.24956	1160.7177	-187.8555	-185.37053	1198.464	-188.54248	-184.20399	1159.3375	-218.99736	-185.51114	1163.7186	-139.95528																																														-1068.498	210.16991	-1625.1097	-1073.5906	248.82559	-1624.214	-1321.5753	231.56313	1024.9922	-1320.2477	270.31781	1029.1527	847.57776	184.01366	1196.2743	850.8493	222.82397	1194.2606	1088.7938	202.59261	-1428.1029	1082.7985	240.91255	-1432.1819	-1171.8969	1686.9904	-1581.8146	-1170.5906	1648.0125	-1581.6947	-1271.0099	1698.9061	1098.0139	-1271.6406	1659.9299	1099.2202	952.91986	1705.6301	1186.9709	972.89838	1733.799	1168.8499	1026.4929	1669.2632	-1551.5249	1028.0334	1630.2959	-1551.9495	-185.12874	1161.0461	-187.18933	-184.87689	1122.0725	-185.77991
229	1.9	-1038.1775	214.41693	-1644.203	-1109.3966	204.12137	-1599.2864	-1063.6553	173.00067	-1625.9014	-1054.1798	262.21875	-1634.9309	-1353.0138	234.92253	1003.6781	-1281.3708	227.24579	1052.4124	-1322.8303	193.77867	1020.9913	-1284.5161	287.92462	1052.6952	813.9115	187.55536	1209.3956	892.00073	178.4017	1179.2806	844.31104	145.71883	1198.2334	860.90814	292.90384	1168.5121	1115.759	209.90851	-1401.7449	1056.2067	194.06697	-1460.2102	1095.1111	162.57245	-1423.8643	1069.7712	238.77014	-1425.7958	-1204.5435	1685.9642	-1563.1937	-1129.1349	1688.3589	-1606.2198	-1173.1571	1724.4315	-1581.9298	-1134.0656	1580.9899	-1603.8221	-1239.6135	1699.1246	1119.4678	-1309.3152	1698.6868	1071.8805	-1270.4631	1736.3362	1096.8881	-1245.6251	1592.847	1110.7008	988.89099	1664.2968	1162.2169	957.43451	1700.4668	1183.7451	922.61731	1662.14	1214.9906	939.76404	1659.4104	1159.9089	999.04211	1668.4658	-1579.4039	1058.8577	1670.1676	-1518.6127	1024.9596	1708.0411	-1551.1006	1059.2488	1672.1641	-1585.4335	-147.08482	1161.2969	-186.64848	-232.24884	1160.7045	-187.86201	-185.36006	1198.4484	-188.53725	-184.16483	1159.2139	-218.96762	-185.51039	1163.7107	-139.93106																																														-1068.493	210.03444	-1625.0834	-1073.5437	248.69661	-1624.2295	-1321.5601	231.55217	1025.0741	-1320.2568	270.30469	1029.2628	847.98419	183.56133	1196.2556	851.74695	222.32648	1194.2295	1088.7483	202.72342	-1428.2623	1082.6797	241.01926	-1432.4572	-1171.9039	1687.0006	-1581.8169	-1170.5992	1648.0227	-1581.6993	-1271.0094	1698.9274	1098.0327	-1271.5787	1659.9498	1099.2255	953.08722	1705.4655	1186.7203	972.87964	1733.6086	1168.3568	1026.4838	1669.2465	-1551.5145	1028.0149	1630.2788	-1551.9302	-185.11902	1161.0322	-187.19044	-184.86797	1122.0582	-185.78757
